User Type,Username,Date,Text
[T],xxxlavalxxx,2013-03-09T10:18Z,"http://www.imdb.com/title/tt0790724/


[b]Plot:A homicide investigator digs deeper into a case involving a trained military sniper who shot five random victims.

Director: 
Christopher McQuarrie

 Writers: 
Christopher McQuarrie (screenplay), Lee Child (book)

Stars:
 Tom Cruise, Rosamund Pike and Richard Jenkins

Genres:
 Action | Crime | Thriller 

General
Complete name                    : /home/potisgood/rtorrent/downloads/【DVD-RMVB.】/【Jack Reacher】【DVD-RMVB.】.rmvb
Format                           : RealMedia
File size                        : 710 MiB
Duration                         : 2h 10mn
Overall bit rate                 : 746 Kbps
null
Performer                        : 

Video
ID                               : 1
Format                           : RealVideo 4
Codec ID                         : RV40
Codec ID/Info                    : Based on AVC (H.264), Real Player 9
Duration                         : 2h 10mn
Bit rate                         : 618 Kbps
Width                            : 720 pixels
Height                           : 408 pixels
Display aspect ratio             : 16:9
Frame rate                       : 29.970 fps
Bits/(Pixel*Frame)               : 0.070
Stream size                      : 576 MiB (81%)

Audio
ID                               : 0
Format                           : AAC
Format/Info                      : Advanced Audio Codec
Format profile                   : LC
Codec ID                         : raac
Codec ID/Info                    : Real Player 9
Duration                         : 2h 10mn
Bit rate                         : 128 Kbps
Channel(s)                       : 2 channels
Sampling rate                    : 44.1 KHz
Bit depth                        : 16 bits
Compression mode                 : Lossy
Stream size                      : 119 MiB (17%)

http://bayimg.com/dAkBjaaEH
http://bayimg.com/dAkbLaaeH
http://bayimg.com/dAKBmAaEH"
,xMovie_Buffx,2013-03-09T16:22Z,do not download..this is a garbage file rmvb...will not play
,xMovie_Buffx,2013-03-09T16:24Z,what kind of idiot posts a RMVB file!
,hairbag,2013-03-09T23:05Z,It's the bigger idiot that downloads an RMVB file before knowing if he can play it or not.
